# xmcd
#
# Track frame offsets: 
#        150
#        19623
#        38237
#        56364
#        73872
#        91903
#        110309
#        135525
#        158915
#        168196
#        188970
#        203687
#        219416
#        233413
#        237448
#        245057
#        255201
#        264279
#
# Disc length: 3752 seconds
#
# Revision: 0
# Processed by: cddbd v1.5.2PL0 Copyright (c) Steve Scherf et al.
# Submitted via: ExactAudioCopy v0.99pb3
#
DISCID=e70ea612
DTITLE=Sounds Of Blackness - Kings and Queens:  Message Music From The M
DTITLE=ovement
DYEAR=2007
DGENRE=Gospel
TTITLE0=Time for Love
TTITLE1=Kings and Queens
TTITLE2=She is Love
TTITLE3=The Message
TTITLE4=Be Real Black for Me
TTITLE5=Martin Luther King
TTITLE6=We Shall Overcome
TTITLE7=Free at Last
TTITLE8=Precious Lord
TTITLE9=March Song Medley:  Eyes on the Prize, Turn me 'Round, Oh Free
TTITLE9=dom
TTITLE10=Children of the Dream
TTITLE11=My Soul is Rested
TTITLE12=Hold on Jus' a Li'l While Longer
TTITLE13=I Got a Robe
TTITLE14=Let My People Go
TTITLE15=Rock My Soul - King Jesus Is A-Listenin'
TTITLE16=Odunde'
TTITLE17=Don't Stop 'til You Reach the Top
EXTD=
EXTT0=
EXTT1=
EXTT2=
EXTT3=
EXTT4=
EXTT5=
EXTT6=
EXTT7=
EXTT8=
EXTT9=
EXTT10=
EXTT11=
EXTT12=
EXTT13=
EXTT14=
EXTT15=
EXTT16=
EXTT17=
PLAYORDER=
